<svg width="32" height="34" viewBox="0 0 32 34" fill="none" xmlns="http://www.w3.org/2000/svg">
<g clip-path="url(#clip0_1_19)">
<path d="M12.0003 2.33333V5H20.0003V2.33333H22.667V5H28.0003C28.7367 5 29.3337 5.59696 29.3337 6.33333V27.6667C29.3337 28.4031 28.7367 29 28.0003 29H4.00033C3.26395 29 2.66699 28.4031 2.66699 27.6667V6.33333C2.66699 5.59696 3.26395 5 4.00033 5H9.33366V2.33333H12.0003ZM26.667 11.6667H5.33366V26.3333H26.667V11.6667ZM20.0477 14.5147L21.9333 16.4004L15.3337 23L10.6196 18.286L12.5052 16.4004L15.3337 19.2288L20.0477 14.5147Z" fill="#9B1121"/>
</g>
<defs>
<clipPath id="clip0_1_19">
<rect width="32" height="33" fill="white" transform="translate(0 0.5)"/>
</clipPath>
</defs>
</svg>
